# xmcd
#
# Track frame offsets:
#	150
#	12830
#	24053
#	40574
#	61350
#	77639
#
# Disc length: 1386 seconds
#
# Revision: 2
# Processed by: cddbd v1.5.1PL0 Copyright (c) Steve Scherf et al.
# Submitted via: audiograbber 1.80
#
DISCID=33056806
DTITLE=Michaels, Bret - Country Demos
DYEAR=1900
DGENRE=
TTITLE0=Future Ex-Wife
TTITLE1=Hot Dang Mama
TTITLE2=The other Side of me
TTITLE3=The One you get
TTITLE4=Like i do, i do
TTITLE5=Play one for me
EXTD=
EXTT0=
EXTT1=
EXTT2=
EXTT3=
EXTT4=
EXTT5=
PLAYORDER=
